<?xml version="1.0"?>
<svg xmlns="http://www.w3.org/2000/svg" xmlns:xlink="http://www.w3.org/1999/xlink" id="Layer_1" data-name="Layer 1" viewBox="0 0 512 512" width="512" height="512"><defs><linearGradient id="linear-gradient" x1="242.82" y1="492" x2="242.82" y2="27.569" gradientUnits="userSpaceOnUse"><stop offset="0.322" stop-color="#a163f5"/><stop offset="0.466" stop-color="#b074ee"/><stop offset="0.752" stop-color="#d8a1dd"/><stop offset="0.898" stop-color="#efbad3"/></linearGradient><linearGradient id="linear-gradient-2" x1="256" y1="492" x2="256" y2="27.569" xlink:href="#linear-gradient"/><linearGradient id="linear-gradient-3" x1="367" y1="492" x2="367" y2="27.569" xlink:href="#linear-gradient"/></defs><title>Add</title><path d="M247.815,427.049h-9.99a7,7,0,0,0,0,14h9.99a7,7,0,1,0,0-14Z" style="fill:url(#linear-gradient)"/><path d="M367,311.5a97.172,97.172,0,0,0-17.451,1.576L328.526,211.143a30.774,30.774,0,0,0,13.6-33.419A24.631,24.631,0,0,0,326.354,160.2l.149-41.4a111.606,111.606,0,1,0-223.21-.666l.1,35.811c0,.056,0,.112,0,.167l.138,6.13a24.632,24.632,0,0,0-15.667,17.488,30.789,30.789,0,0,0,16.546,35.051L73.365,329.455a7,7,0,0,0,5.093,8.6,201.689,201.689,0,0,0,25.251,3.964,7.008,7.008,0,0,0,5.8-2.15L126.52,321.9l.707,13.221a6.974,6.974,0,0,0,.691,2.673L86.7,351.767A56.974,56.974,0,0,0,48,405.751v61.728a7,7,0,0,0,7,7H295.967A96.978,96.978,0,1,0,367,311.5ZM171.153,337.927,207.9,374.575v29.676l-60.074-58.418ZM249.98,327,215,361.884,180.02,327V311.069a90.2,90.2,0,0,0,25.875,3.79H224.1a90.178,90.178,0,0,0,25.876-3.791ZM221.9,374.775l36.947-36.848,23.327,7.906L221.9,404.446Zm79.143-37.329-14.919-5.056,9.778-12,12.241,11.064Q304.45,334.281,301.043,337.446Zm19.213-13.916-20.433-18.468a7,7,0,0,0-10.12.772l-17.729,21.76-7.994-2.709V305.6a101.528,101.528,0,0,0,30.771-23.368,111.934,111.934,0,0,0,24.781-45.391l16.446,79.743A96.45,96.45,0,0,0,320.256,323.53ZM251.315,110.048c8.568,17.211,23.775,31.709,42.81,41.136A120.005,120.005,0,0,1,237.772,122.4,140.873,140.873,0,0,0,251.315,110.048ZM214.9,20.5a97.606,97.606,0,0,1,97.6,98.225l-.091,24.9c-24.137-8.106-43.136-24.831-50.944-45.22a180.6,180.6,0,0,0,15.416-23.088A7,7,0,1,0,264.7,68.428c-36.975,65.446-90.259,68.422-115.866,69.852l-.378.021c-6.314.354-12.269,4.792-15.541,11.582a8.794,8.794,0,0,1-4.166,4.09,8.978,8.978,0,0,1-10.18-1.759l-1.176-1.175-.1-32.933A97.718,97.718,0,0,1,214.9,20.5ZM101.469,181.053a10.86,10.86,0,0,1,9.839-8.31,7,7,0,0,0,6.121-5.162,22.933,22.933,0,0,0,28.1-11.621c1.062-2.205,2.753-3.627,3.71-3.68l.377-.021c13.1-.732,35.032-1.957,58.426-12.015a128.874,128.874,0,0,0,18.1-9.558,133.96,133.96,0,0,0,86.427,36.861,7,7,0,0,0,6.124,5.2,10.858,10.858,0,0,1,9.838,8.31,16.768,16.768,0,0,1-13.356,20.493,7,7,0,0,0-5.792,6.9v.141a97.055,97.055,0,0,1-25.011,64.261,85.646,85.646,0,0,1-34.222,23.42h-.168v.06a76.25,76.25,0,0,1-25.876,4.536H205.9a76.268,76.268,0,0,1-25.875-4.535v-.061h-.169a85.639,85.639,0,0,1-34.222-23.42,97.055,97.055,0,0,1-25.011-64.261v-.141a7,7,0,0,0-5.793-6.9,16.772,16.772,0,0,1-13.356-20.493Zm42.82,146.991q-1.746-.067-3.427-.13l-1.232-23.025a7,7,0,0,0-12.072-4.439L101.73,327.718c-5.258-.611-9.625-1.286-12.919-1.864l22.726-85.4a111.833,111.833,0,0,0,23.71,41.777A101.551,101.551,0,0,0,166.02,305.6v19.281l-10.277,3.483C151.869,328.334,148.021,328.19,144.289,328.044ZM62,405.751a42.982,42.982,0,0,1,29.2-40.725l41.737-14.146,74.966,72.9v36.7H62Zm159.9,54.728v-36.5l56.5-54.943a96.857,96.857,0,0,0,6.736,91.448ZM367,491.5a83,83,0,1,1,83-83A83.094,83.094,0,0,1,367,491.5Z" style="fill:url(#linear-gradient-2)"/><path d="M401.056,401.75H374V374.694a7,7,0,1,0-14,0V401.75H332.944a7,7,0,1,0,0,14H360v27.057a7,7,0,0,0,14,0V415.75h27.056a7,7,0,1,0,0-14Z" style="fill:url(#linear-gradient-3)"/></svg>
